<svg xmlns="http://www.w3.org/2000/svg" width="48" height="48" viewBox="0 0 48 48">
  <defs>
    <linearGradient id="g" x1="0%" y1="0%" x2="100%" y2="100%">
      <stop offset="0%" stop-color="#2563eb"/>
      <stop offset="100%" stop-color="#7c3aed"/>
    </linearGradient>
  </defs>
  <rect width="48" height="48" rx="11" fill="url(#g)"/>
  <!-- 钢笔头 icon -->
  <path d="M24 11c-1.3 0-2.5.9-3 2.2L15 30c-.4 1.1 0 2.4 1 3.1l8 5.5 8-5.5c1-.7 1.4-2 1-3.1L27 13.2c-.5-1.3-1.7-2.2-3-2.2Z" fill="#fff" opacity="0.95"/>
  <path d="M20.5 28.5c-.3 0-.5-.4-.3-.7l3.8-11c0-.1.2-.2.5-.2s.4.1.5.2l3.8 11c.2.3 0 .7-.3.7h-8Z" fill="#6366f1" opacity="0.8"/>
  <line x1="24" y1="25" x2="24" y2="37" stroke="#fff" stroke-width="1.5" opacity="0.4"/>
</svg>
